<?xml version="1.0" encoding="utf-8"?><!-- Uploaded to: SVG Repo, www.svgrepo.com, Generator: SVG Repo Mixer Tools -->
<svg width="60px" height="60px" viewBox="0 0 32 32" fill="none" xmlns="http://www.w3.org/2000/svg">
<path d="M30 18V23C30 23.7956 29.6839 24.5587 29.1213 25.1213C28.5587 25.6839 27.7956 26 27 26H26C26 27.0609 25.5786 28.0783 24.8284 28.8284C24.0783 29.5786 23.0609 30 22 30H10C8.93913 30 7.92172 29.5786 7.17157 28.8284C6.42143 28.0783 6 27.0609 6 26H5C4.20435 26 3.44129 25.6839 2.87868 25.1213C2.31607 24.5587 2 23.7956 2 23V18C2 17.2044 2.31607 16.4413 2.87868 15.8787C3.44129 15.3161 4.20435 15 5 15H6V6C6 5.73478 6.10536 5.48043 6.29289 5.29289C6.48043 5.10536 6.73478 5 7 5H25C25.2652 5 25.5196 5.10536 25.7071 5.29289C25.8946 5.48043 26 5.73478 26 6V15H27C27.7956 15 28.5587 15.3161 29.1213 15.8787C29.6839 16.4413 30 17.2044 30 18Z" fill="#304FFE"/>
<path d="M6 21H4C3.73478 21 3.48043 20.8946 3.29289 20.7071C3.10536 20.5196 3 20.2652 3 20C3 19.7348 3.10536 19.4804 3.29289 19.2929C3.48043 19.1054 3.73478 19 4 19H6C6.26522 19 6.51957 19.1054 6.70711 19.2929C6.89464 19.4804 7 19.7348 7 20C7 20.2652 6.89464 20.5196 6.70711 20.7071C6.51957 20.8946 6.26522 21 6 21Z" fill="#F5F5F5"/>
<path d="M28 21H26C25.7348 21 25.4804 20.8946 25.2929 20.7071C25.1054 20.5196 25 20.2652 25 20C25 19.7348 25.1054 19.4804 25.2929 19.2929C25.4804 19.1054 25.7348 19 26 19H28C28.2652 19 28.5196 19.1054 28.7071 19.2929C28.8946 19.4804 29 19.7348 29 20C29 20.2652 28.8946 20.5196 28.7071 20.7071C28.5196 20.8946 28.2652 21 28 21Z" fill="#F5F5F5"/>
<path d="M26 6V12.41L23.29 15.12C22.7279 15.6828 21.9654 15.9993 21.17 16H10.83C10.0346 15.9993 9.27207 15.6828 8.71 15.12L6 12.41V6C6 5.73478 6.10536 5.48043 6.29289 5.29289C6.48043 5.10536 6.73478 5 7 5H25C25.2652 5 25.5196 5.10536 25.7071 5.29289C25.8946 5.48043 26 5.73478 26 6Z" fill="#283593"/>
<path d="M18.59 26H13.41C12.8804 25.9978 12.3734 25.7856 12 25.41L10.59 24C10.4028 23.8139 10.2543 23.5927 10.1531 23.349C10.0518 23.1053 9.99979 22.8439 10 22.58V20C10 19.4696 10.2107 18.9609 10.5858 18.5858C10.9609 18.2107 11.4696 18 12 18H20C20.5304 18 21.0391 18.2107 21.4142 18.5858C21.7893 18.9609 22 19.4696 22 20V22.58C22.0002 22.8439 21.9482 23.1053 21.8469 23.349C21.7457 23.5927 21.5972 23.8139 21.41 24L20 25.41C19.6267 25.7856 19.1196 25.9978 18.59 26ZM12 20V22.58L13.41 24H18.59L20 22.58V20H12Z" fill="#1A237E"/>
<path d="M19 7C18.7348 7 18.4804 6.89464 18.2929 6.70711C18.1054 6.51957 18 6.26522 18 6V5C18 4.73478 17.8946 4.48043 17.7071 4.29289C17.5196 4.10536 17.2652 4 17 4H15C14.7348 4 14.4804 4.10536 14.2929 4.29289C14.1054 4.48043 14 4.73478 14 5V6C14 6.26522 13.8946 6.51957 13.7071 6.70711C13.5196 6.89464 13.2652 7 13 7C12.7348 7 12.4804 6.89464 12.2929 6.70711C12.1054 6.51957 12 6.26522 12 6V5C12 4.20435 12.3161 3.44129 12.8787 2.87868C13.4413 2.31607 14.2044 2 15 2H17C17.7956 2 18.5587 2.31607 19.1213 2.87868C19.6839 3.44129 20 4.20435 20 5V6C20 6.26522 19.8946 6.51957 19.7071 6.70711C19.5196 6.89464 19.2652 7 19 7Z" fill="#1A237E"/>
<path d="M7 5C6.73478 5 6.48043 5.10536 6.29289 5.29289C6.10536 5.48043 6 5.73478 6 6V15H5C4.20435 15 3.44129 15.3161 2.87868 15.8787C2.31607 16.4413 2 17.2044 2 18V23C2 23.7956 2.31607 24.5587 2.87868 25.1213C3.44129 25.6839 4.20435 26 5 26H6C6 27.0609 6.42143 28.0783 7.17157 28.8284C7.92172 29.5786 8.93913 30 10 30H16V5H7Z" fill="#536DFE"/>
<path d="M6 21H4C3.73478 21 3.48043 20.8946 3.29289 20.7071C3.10536 20.5196 3 20.2652 3 20C3 19.7348 3.10536 19.4804 3.29289 19.2929C3.48043 19.1054 3.73478 19 4 19H6C6.26522 19 6.51957 19.1054 6.70711 19.2929C6.89464 19.4804 7 19.7348 7 20C7 20.2652 6.89464 20.5196 6.70711 20.7071C6.51957 20.8946 6.26522 21 6 21Z" fill="#F5F5F5"/>
<path d="M7 5C6.73478 5 6.48043 5.10536 6.29289 5.29289C6.10536 5.48043 6 5.73478 6 6V12.41L8.71 15.12C9.27207 15.6828 10.0346 15.9993 10.83 16H16V5H7Z" fill="#3949AB"/>
<path d="M13.44 24L12 22.59V20H16V18H12C11.4696 18 10.9609 18.2107 10.5858 18.5858C10.2107 18.9609 10 19.4696 10 20V22.59C10.005 22.8543 10.0624 23.1151 10.1688 23.3571C10.2752 23.5991 10.4286 23.8176 10.62 24L12 25.42C12.375 25.7919 12.8819 26.0004 13.41 26H16V24H13.44Z" fill="#303F9F"/>
<path d="M15 2C14.2044 2 13.4413 2.31607 12.8787 2.87868C12.3161 3.44129 12 4.20435 12 5V6C12 6.26522 12.1054 6.51957 12.2929 6.70711C12.4804 6.89464 12.7348 7 13 7C13.2652 7 13.5196 6.89464 13.7071 6.70711C13.8946 6.51957 14 6.26522 14 6V5C14 4.73478 14.1054 4.48043 14.2929 4.29289C14.4804 4.10536 14.7348 4 15 4H16V2H15Z" fill="#303F9F"/>
</svg>